<?xml version="1.0" standalone="no"?><!DOCTYPE svg PUBLIC "-//W3C//DTD SVG 1.1//EN" "http://www.w3.org/Graphics/SVG/1.1/DTD/svg11.dtd"><svg width="128" height="128" viewBox="0 0 128 128" version="1.1" xmlns="http://www.w3.org/2000/svg" xmlns:xlink="http://www.w3.org/1999/xlink"><defs><style type="text/css"><![CDATA[
@font-face { font-family: ifont; src: url("//at.alicdn.com/t/font_1442373896_4754455.eot?#iefix") format("embedded-opentype"), url("//at.alicdn.com/t/font_1442373896_4754455.woff") format("woff"), url("//at.alicdn.com/t/font_1442373896_4754455.ttf") format("truetype"), url("//at.alicdn.com/t/font_1442373896_4754455.svg#ifont") format("svg"); }

]]></style></defs><g class="transform-group"><g transform="scale(0.125, 0.125)"><path d="M1020.209709 890.887456 749.11068 619.793398c39.640233-62.478913 62.630524-136.510136 62.630524-215.817942 0.004971-222.752311-181.218175-403.975456-403.975456-403.975456-222.752311 0-403.975456 181.223146-403.975456 403.975456s181.223146 403.975456 403.975456 403.975456c75.373359 0 145.97468-20.768311 206.427961-56.856854l272.903456 272.905942L1020.209709 890.887456zM154.387883 403.975456c0-139.713864 113.664-253.38035 253.377864-253.38035s253.38035 113.666485 253.38035 253.38035-113.666485 253.377864-253.38035 253.377864S154.387883 543.68932 154.387883 403.975456z" fill="#00bb9c"></path></g></g></svg>