<?xml version="1.0" standalone="no"?><!DOCTYPE svg PUBLIC "-//W3C//DTD SVG 1.1//EN" "http://www.w3.org/Graphics/SVG/1.1/DTD/svg11.dtd"><svg width="128" height="128" viewBox="0 0 128 128" version="1.1" xmlns="http://www.w3.org/2000/svg" xmlns:xlink="http://www.w3.org/1999/xlink"><defs><style type="text/css"><![CDATA[
@font-face { font-family: ifont; src: url("//at.alicdn.com/t/font_1442373896_4754455.eot?#iefix") format("embedded-opentype"), url("//at.alicdn.com/t/font_1442373896_4754455.woff") format("woff"), url("//at.alicdn.com/t/font_1442373896_4754455.ttf") format("truetype"), url("//at.alicdn.com/t/font_1442373896_4754455.svg#ifont") format("svg"); }

]]></style></defs><g class="transform-group"><g transform="scale(0.125, 0.125)"><path d="M448 370.4c0 49.28-40.32 89.6-89.6 89.6l-204.8 0c-49.28 0-89.6-40.32-89.6-89.6l0-204.8c0-49.28 40.32-89.6 89.6-89.6l204.8 0c49.28 0 89.6 40.32 89.6 89.6l0 204.8zM960 882.4c0 49.28-40.32 89.6-89.6 89.6l-204.8 0c-49.28 0-89.6-40.32-89.6-89.6l0-204.8c0-49.28 40.32-89.6 89.6-89.6l204.8 0c49.28 0 89.6 40.32 89.6 89.6l0 204.8zM960 370.4c0 49.28-40.32 89.6-89.6 89.6l-204.8 0c-49.28 0-89.6-40.32-89.6-89.6l0-204.8c0-49.28 40.32-89.6 89.6-89.6l204.8 0c49.28 0 89.6 40.32 89.6 89.6l0 204.8zM448 882.4c0 49.28-40.32 89.6-89.6 89.6l-204.8 0c-49.28 0-89.6-40.32-89.6-89.6l0-204.8c0-49.28 40.32-89.6 89.6-89.6l204.8 0c49.28 0 89.6 40.32 89.6 89.6l0 204.8z" fill="#56abe4"></path></g></g></svg>